# xmcd CD database file
#
# Track frame offsets:
#	150
#	23127
#	38400
#	54438
#	73326
#	89825
#	108109
#	122927
#	137777
#	155977
#	171485
#	198270
#
# Disc length: 3299 seconds
#
# Revision: 2
# Processed by: cddbd v1.5.2PL0 Copyright (c) Steve Scherf et al.
# Submitted via: CDex 1.51
#
DISCID=af0ce10c
DTITLE=Jason Aldean - Jason Aldean
DYEAR=2005
DGENRE=Country
TTITLE0=Hicktown
TTITLE1=Amarillo Sky
TTITLE2=Why
TTITLE3=Even If I Wanted To
TTITLE4=Lonesome U.S.A.
TTITLE5=Asphalt Cowboy
TTITLE6=I'm Just A Man
TTITLE7=You're The Love I Wanna Be In
TTITLE8=Good To Go
TTITLE9=I Believe In Ghosts
TTITLE10=She Loved Me
TTITLE11=Data Track
EXTD=YEAR: 2005
EXTT0=
EXTT1=
EXTT2=
EXTT3=
EXTT4=
EXTT5=
EXTT6=
EXTT7=
EXTT8=
EXTT9=
EXTT10=
EXTT11=
PLAYORDER=
